<svg xmlns="http://www.w3.org/2000/svg" xmlns:xlink="http://www.w3.org/1999/xlink" width="500" zoomAndPan="magnify" viewBox="0 0 375 374.999991" height="500" preserveAspectRatio="xMidYMid meet" version="1.0">
    <defs>
        <g />
        <clipPath id="7c2f3f8aab">
            <path d="M 0 87.488281 L 375 87.488281 L 375 294.488281 L 0 294.488281 Z M 0 87.488281 " clip-rule="nonzero" />
        </clipPath>
        <clipPath id="ccff5ab383">
            <path d="M 0 0 L 187.5 0 L 187.5 187.5 L 0 187.5 Z M 0 0 " clip-rule="nonzero" />
        </clipPath>
        <clipPath id="2824328b87">
            <path d="M 0 187.5 L 187.5 187.5 L 187.5 375 L 0 375 Z M 0 187.5 " clip-rule="nonzero" />
        </clipPath>
        <clipPath id="3a1b46c0fd">
            <path d="M 187.5 187.5 L 375 187.5 L 375 375 L 187.5 375 Z M 187.5 187.5 " clip-rule="nonzero" />
        </clipPath>
        <clipPath id="610f9ffb9c">
            <path d="M 187.5 0 L 375 0 L 375 187.5 L 187.5 187.5 Z M 187.5 0 " clip-rule="nonzero" />
        </clipPath>
        <clipPath id="526aca022d">
            <rect x="0" width="85" y="0" height="102" />
        </clipPath>
        <clipPath id="1603acd803">
            <rect x="0" width="110" y="0" height="108" />
        </clipPath>
        <clipPath id="63a1108dc2">
            <rect x="0" width="71" y="0" height="132" />
        </clipPath>
    </defs>
    <path fill="#ff0013" d="M 371.097656 232.550781 C 369.859375 234.351562 368.277344 236.261719 366.789062 237.863281 C 367.125 241.078125 367.089844 244.441406 365.796875 247.414062 C 364.070312 251.355469 360.277344 254.246094 359.097656 258.394531 C 358.75 259.605469 358.742188 260.800781 359.339844 261.910156 C 358.617188 261.429688 357.660156 261.410156 356.835938 261.65625 C 356.003906 261.898438 354.960938 262.152344 354.25 262.648438 C 352.421875 263.921875 350.988281 265.554688 349.304688 267.023438 C 347.824219 268.316406 346.351562 269.6875 344.5625 270.511719 C 342.445312 271.484375 340.007812 271.570312 337.675781 271.691406 C 337.320312 273.871094 336.632812 276 335.640625 277.988281 C 335.285156 278.6875 334.882812 279.402344 334.273438 279.90625 C 333.675781 280.410156 332.914062 280.683594 332.148438 280.882812 C 328.429688 281.855469 324.304688 281.21875 321.054688 279.167969 C 319.023438 280.804688 316.425781 282.761719 313.867188 283.261719 C 311.796875 283.664062 309.632812 283.242188 307.558594 283.644531 C 305.078125 284.132812 302.941406 286.015625 301.890625 288.3125 C 301.039062 286.832031 299.277344 286.0625 297.570312 285.949219 C 295.867188 285.847656 294.179688 286.296875 292.539062 286.773438 C 290.898438 287.242188 289.234375 287.742188 287.523438 287.703125 C 286.324219 287.675781 285.144531 287.394531 283.984375 287.101562 C 282.707031 286.792969 281.425781 286.476562 280.152344 286.164062 C 279.5625 288.058594 277.78125 289.699219 276.058594 290.683594 C 275.042969 291.261719 273.949219 291.730469 272.789062 291.882812 C 270.820312 292.132812 268.824219 291.414062 267.183594 290.296875 C 265.542969 289.179688 264.191406 287.703125 262.851562 286.230469 L 262.851562 286.136719 C 259.113281 288.726562 254.054688 289.277344 249.835938 287.574219 C 249.023438 287.246094 248.1875 286.824219 247.296875 286.886719 C 246.59375 286.941406 245.957031 287.289062 245.347656 287.636719 C 244.308594 288.226562 243.257812 288.816406 242.21875 289.40625 C 241.121094 287.53125 238.964844 286.820312 236.8125 286.511719 C 234.65625 286.207031 232.464844 286.390625 230.308594 286.109375 C 227.375 285.734375 224.5625 284.480469 222.324219 282.550781 C 221 284.097656 219.230469 285.0625 217.320312 285.738281 C 215.867188 286.253906 214.292969 286.554688 212.773438 286.253906 C 211.144531 285.933594 209.710938 284.949219 208.605469 283.714844 C 207.5 282.476562 206.703125 280.75 206.019531 279.242188 L 206.019531 279.234375 C 200.910156 280.957031 194.925781 279.957031 190.613281 276.714844 C 190.03125 276.660156 189.433594 276.75 188.898438 276.988281 C 188.625 277.097656 188.371094 277.257812 188.195312 277.484375 C 187.90625 277.859375 187.847656 278.394531 187.492188 278.703125 C 187.136719 278.390625 187.078125 277.859375 186.789062 277.484375 C 186.613281 277.25 186.351562 277.097656 186.085938 276.988281 C 185.550781 276.75 184.953125 276.660156 184.371094 276.714844 C 180.0625 279.957031 174.074219 280.957031 168.96875 279.234375 L 168.96875 279.242188 C 168.28125 280.753906 167.476562 282.476562 166.378906 283.714844 C 165.273438 284.949219 163.832031 285.933594 162.210938 286.253906 C 160.691406 286.554688 159.117188 286.253906 157.667969 285.738281 C 155.746094 285.054688 153.984375 284.097656 152.660156 282.550781 C 150.421875 284.480469 147.609375 285.738281 144.675781 286.109375 C 142.523438 286.390625 140.320312 286.203125 138.171875 286.511719 C 136.019531 286.824219 133.863281 287.535156 132.765625 289.40625 C 131.726562 288.816406 130.675781 288.226562 129.636719 287.636719 C 129.027344 287.289062 128.390625 286.945312 127.6875 286.886719 C 126.808594 286.824219 125.972656 287.242188 125.148438 287.574219 C 120.929688 289.289062 115.871094 288.726562 112.132812 286.136719 L 112.132812 286.203125 C 110.800781 287.675781 109.453125 289.15625 107.800781 290.269531 C 106.164062 291.386719 104.167969 292.097656 102.199219 291.855469 C 101.035156 291.703125 99.941406 291.238281 98.929688 290.65625 C 97.203125 289.671875 95.414062 288.03125 94.832031 286.136719 C 93.558594 286.449219 92.277344 286.765625 91 287.074219 C 89.839844 287.355469 88.660156 287.648438 87.460938 287.675781 C 85.753906 287.710938 84.085938 287.214844 82.445312 286.746094 C 80.804688 286.28125 79.117188 285.820312 77.414062 285.921875 C 75.707031 286.027344 73.957031 286.804688 73.09375 288.285156 C 72.035156 285.992188 69.898438 284.105469 67.425781 283.617188 C 65.355469 283.214844 63.191406 283.636719 61.117188 283.234375 C 58.558594 282.734375 55.964844 280.777344 53.929688 279.140625 C 50.679688 281.191406 46.558594 281.828125 42.835938 280.855469 C 42.078125 280.65625 41.320312 280.386719 40.710938 279.878906 C 40.101562 279.371094 39.699219 278.667969 39.34375 277.957031 C 38.359375 275.980469 37.664062 273.84375 37.3125 271.664062 C 34.976562 271.539062 32.542969 271.457031 30.425781 270.480469 C 28.632812 269.65625 27.171875 268.289062 25.683594 266.996094 C 23.996094 265.535156 22.992188 264.027344 21.164062 262.753906 C 20.453125 262.257812 18.984375 261.875 18.148438 261.628906 C 17.3125 261.386719 16.367188 261.402344 15.644531 261.882812 C 16.246094 260.777344 16.113281 259.578125 15.769531 258.367188 C 14.589844 254.222656 10.792969 251.339844 9.070312 247.386719 C 7.777344 244.421875 7.738281 241.0625 8.078125 237.835938 C 6.597656 236.242188 5.003906 234.320312 3.765625 232.523438 C 2.980469 231.371094 2.21875 230.117188 2.144531 228.71875 C 2.050781 227.003906 3.007812 225.414062 4.09375 224.089844 C 5.34375 222.574219 6.800781 221.242188 8.433594 220.15625 C 8.988281 219.789062 9.558594 219.445312 10.007812 218.957031 C 10.457031 218.46875 10.777344 217.820312 10.695312 217.167969 C 10.1875 213.585938 11.207031 209.390625 13.449219 206.558594 C 14.476562 205.269531 15.742188 204.152344 16.664062 202.78125 C 17.84375 201.039062 18.414062 198.828125 17.917969 196.777344 C 17.703125 195.894531 17.308594 195.070312 17.066406 194.210938 C 16.492188 192.167969 16.824219 189.992188 17.152344 187.902344 C 18.351562 186.550781 18.574219 184.191406 17.957031 182.484375 C 17.339844 180.789062 16.164062 179.355469 15.078125 177.914062 C 13.53125 175.863281 12.097656 173.6875 11.144531 171.296875 C 10.1875 168.90625 9.707031 166.28125 10.113281 163.746094 C 8.511719 162.976562 6.945312 161.824219 5.691406 160.558594 C 4.445312 159.292969 3.480469 157.707031 3.125 155.964844 C 2.683594 153.828125 3.191406 151.570312 4.238281 149.660156 C 5.289062 147.746094 6.917969 146.128906 8.671875 144.824219 C 7.792969 141.308594 7.535156 137.449219 9.140625 134.207031 C 9.925781 132.617188 11.117188 131.257812 12.277344 129.90625 C 13.441406 128.558594 14.609375 127.179688 15.332031 125.550781 C 16.0625 123.925781 16.382812 121.632812 15.660156 120.011719 C 16.382812 120.480469 17.339844 120.511719 18.164062 120.265625 C 18.988281 120.023438 19.726562 119.535156 20.441406 119.039062 C 22.265625 117.761719 24.007812 116.359375 25.695312 114.894531 C 27.175781 113.605469 28.648438 112.234375 30.4375 111.410156 C 32.554688 110.4375 34.992188 110.351562 37.324219 110.230469 C 37.679688 108.050781 38.367188 105.921875 39.359375 103.933594 C 39.710938 103.234375 40.117188 102.519531 40.726562 102.015625 C 41.324219 101.511719 42.085938 101.238281 42.851562 101.039062 C 46.570312 100.066406 50.695312 100.703125 53.945312 102.753906 C 55.976562 101.117188 58.574219 99.15625 61.132812 98.660156 C 63.203125 98.257812 65.367188 98.679688 67.4375 98.277344 C 69.921875 97.789062 72.058594 95.90625 73.109375 93.609375 C 73.960938 95.089844 75.722656 95.859375 77.429688 95.972656 C 79.132812 96.074219 80.820312 95.625 82.460938 95.144531 C 84.101562 94.679688 85.765625 94.179688 87.472656 94.21875 C 88.675781 94.246094 89.855469 94.527344 91.015625 94.820312 C 92.292969 95.128906 93.574219 95.445312 94.847656 95.757812 C 95.4375 93.863281 97.21875 92.222656 98.941406 91.238281 C 99.957031 90.660156 101.050781 90.1875 102.210938 90.039062 C 104.179688 89.785156 106.175781 90.507812 107.816406 91.625 C 109.457031 92.742188 110.808594 94.21875 112.148438 95.691406 L 112.148438 95.757812 C 115.886719 93.167969 120.945312 92.617188 125.164062 94.320312 C 125.976562 94.660156 126.8125 95.070312 127.703125 95.007812 C 128.40625 94.957031 129.042969 94.605469 129.652344 94.257812 C 130.691406 93.667969 131.742188 93.078125 132.78125 92.488281 C 133.878906 94.359375 136.035156 95.074219 138.1875 95.382812 C 140.34375 95.691406 142.535156 95.503906 144.691406 95.785156 C 147.625 96.160156 150.4375 97.414062 152.675781 99.34375 C 154 97.796875 155.769531 96.832031 157.679688 96.15625 C 159.132812 95.640625 160.707031 95.351562 162.226562 95.640625 C 163.855469 95.957031 165.289062 96.945312 166.394531 98.179688 C 167.5 99.417969 168.296875 101.144531 168.980469 102.648438 L 168.980469 102.660156 C 174.089844 100.933594 180.074219 101.9375 184.386719 105.179688 C 184.96875 105.234375 185.566406 105.140625 186.101562 104.90625 C 186.375 104.796875 186.628906 104.636719 186.804688 104.410156 C 187.09375 104.035156 187.152344 103.5 187.507812 103.191406 C 187.863281 103.503906 187.917969 104.035156 188.210938 104.410156 C 188.386719 104.644531 188.648438 104.796875 188.914062 104.90625 C 189.445312 105.140625 190.046875 105.234375 190.628906 105.179688 C 194.9375 101.9375 200.925781 100.933594 206.03125 102.660156 L 206.03125 102.648438 C 206.71875 101.140625 207.523438 99.417969 208.621094 98.179688 C 209.726562 96.945312 211.167969 95.960938 212.789062 95.640625 C 214.308594 95.339844 215.882812 95.640625 217.332031 96.15625 C 219.253906 96.839844 221.015625 97.796875 222.339844 99.34375 C 224.578125 97.414062 227.390625 96.15625 230.320312 95.785156 C 232.476562 95.503906 234.679688 95.691406 236.828125 95.382812 C 238.980469 95.070312 241.136719 94.359375 242.234375 92.488281 C 243.273438 93.078125 244.324219 93.667969 245.363281 94.257812 C 245.972656 94.605469 246.609375 94.949219 247.3125 95.007812 C 248.191406 95.070312 249.027344 94.652344 249.851562 94.320312 C 254.070312 92.605469 259.128906 93.167969 262.867188 95.757812 L 262.867188 95.71875 C 264.199219 94.246094 265.546875 92.765625 267.199219 91.652344 C 268.847656 90.535156 270.832031 89.824219 272.800781 90.066406 C 273.964844 90.214844 275.058594 90.683594 276.070312 91.265625 C 277.796875 92.25 279.585938 93.890625 280.167969 95.785156 C 281.441406 95.472656 282.722656 95.15625 284 94.847656 C 285.160156 94.566406 286.339844 94.273438 287.539062 94.246094 C 289.246094 94.207031 290.914062 94.707031 292.554688 95.171875 C 294.195312 95.640625 295.882812 96.101562 297.585938 96 C 299.292969 95.894531 301.042969 95.117188 301.90625 93.636719 C 302.964844 95.929688 305.101562 97.816406 307.574219 98.304688 C 309.644531 98.707031 311.808594 98.285156 313.882812 98.6875 C 316.4375 99.1875 319.035156 101.144531 321.070312 102.78125 C 324.320312 100.730469 328.441406 100.09375 332.164062 101.066406 C 332.921875 101.265625 333.679688 101.535156 334.289062 102.042969 C 334.898438 102.546875 335.300781 103.253906 335.65625 103.960938 C 336.640625 105.941406 337.335938 108.078125 337.6875 110.257812 C 340.023438 110.382812 342.457031 110.464844 344.574219 111.4375 C 346.367188 112.265625 347.828125 113.632812 349.316406 114.921875 C 351.003906 116.386719 352.4375 118.015625 354.265625 119.300781 C 354.976562 119.796875 356.015625 120.050781 356.851562 120.292969 C 357.6875 120.535156 358.632812 120.519531 359.355469 120.039062 C 358.632812 121.671875 358.828125 123.957031 359.558594 125.578125 C 360.289062 127.199219 361.453125 128.585938 362.613281 129.933594 C 363.777344 131.285156 364.964844 132.632812 365.753906 134.238281 C 367.355469 137.476562 367.101562 141.347656 366.222656 144.851562 C 367.964844 146.15625 369.59375 147.785156 370.652344 149.6875 C 371.703125 151.589844 372.207031 153.855469 371.769531 155.992188 C 371.414062 157.734375 370.445312 159.320312 369.199219 160.585938 C 367.957031 161.851562 366.386719 163.003906 364.777344 163.773438 C 365.179688 166.3125 364.703125 168.933594 363.75 171.324219 C 362.792969 173.714844 361.359375 175.878906 359.8125 177.941406 C 358.726562 179.382812 357.558594 180.816406 356.9375 182.511719 C 356.320312 184.210938 356.542969 186.570312 357.742188 187.929688 C 358.070312 190.019531 358.390625 192.195312 357.828125 194.238281 C 357.585938 195.109375 357.1875 195.933594 356.972656 196.804688 C 356.476562 198.847656 357.050781 201.058594 358.230469 202.8125 C 359.15625 204.179688 360.421875 205.285156 361.445312 206.585938 C 363.683594 209.417969 364.707031 213.625 364.199219 217.195312 C 364.105469 217.847656 364.433594 218.507812 364.882812 218.984375 C 365.332031 219.472656 365.90625 219.820312 366.457031 220.183594 C 368.089844 221.269531 369.550781 222.601562 370.796875 224.117188 C 371.886719 225.441406 372.839844 227.03125 372.746094 228.746094 C 372.644531 230.144531 371.886719 231.398438 371.097656 232.550781 Z M 371.097656 232.550781 " fill-opacity="1" fill-rule="nonzero" />
    <g clip-path="url(#7c2f3f8aab)">
        <path fill="#87bfff" d="M 0.0234375 87.488281 L 374.976562 87.488281 L 374.976562 294.480469 L 0.0234375 294.480469 Z M 0.0234375 87.488281 " fill-opacity="1" fill-rule="nonzero" />
    </g>
    <path fill="#ff0013" d="M 145.933594 371.097656 C 144.136719 369.859375 142.226562 368.277344 140.625 366.789062 C 137.410156 367.125 134.042969 367.089844 131.074219 365.796875 C 127.128906 364.070312 124.242188 360.277344 120.09375 359.097656 C 118.882812 358.75 117.6875 358.742188 116.578125 359.339844 C 117.054688 358.617188 117.074219 357.660156 116.832031 356.835938 C 116.589844 356.003906 116.332031 354.960938 115.839844 354.25 C 114.5625 352.421875 112.933594 350.988281 111.460938 349.304688 C 110.167969 347.824219 108.800781 346.351562 107.976562 344.5625 C 107.003906 342.445312 106.917969 340.007812 106.796875 337.675781 C 104.613281 337.320312 102.488281 336.632812 100.5 335.640625 C 99.796875 335.285156 99.085938 334.882812 98.582031 334.273438 C 98.074219 333.675781 97.804688 332.914062 97.605469 332.148438 C 96.632812 328.429688 97.269531 324.304688 99.320312 321.054688 C 97.679688 319.023438 95.722656 316.425781 95.226562 313.867188 C 94.824219 311.796875 95.246094 309.632812 94.839844 307.558594 C 94.355469 305.078125 92.472656 302.941406 90.175781 301.890625 C 91.652344 301.039062 92.425781 299.277344 92.535156 297.570312 C 92.640625 295.867188 92.1875 294.179688 91.710938 292.539062 C 91.246094 290.898438 90.746094 289.234375 90.785156 287.523438 C 90.8125 286.324219 91.09375 285.144531 91.382812 283.984375 C 91.695312 282.707031 92.011719 281.425781 92.320312 280.152344 C 90.429688 279.5625 88.789062 277.78125 87.804688 276.058594 C 87.226562 275.042969 86.753906 273.949219 86.605469 272.789062 C 86.351562 270.820312 87.070312 268.824219 88.191406 267.183594 C 89.308594 265.542969 90.785156 264.191406 92.257812 262.851562 L 92.347656 262.851562 C 89.761719 259.113281 89.210938 254.054688 90.914062 249.835938 C 91.242188 249.023438 91.664062 248.1875 91.597656 247.296875 C 91.542969 246.59375 91.195312 245.957031 90.847656 245.347656 C 90.257812 244.308594 89.667969 243.257812 89.078125 242.21875 C 90.953125 241.121094 91.667969 238.964844 91.972656 236.8125 C 92.28125 234.65625 92.097656 232.464844 92.375 230.308594 C 92.75 227.375 94.007812 224.5625 95.9375 222.324219 C 94.390625 221 93.425781 219.230469 92.75 217.320312 C 92.234375 215.867188 91.933594 214.292969 92.234375 212.773438 C 92.550781 211.144531 93.535156 209.710938 94.773438 208.605469 C 96.011719 207.5 97.734375 206.703125 99.242188 206.019531 L 99.253906 206.019531 C 97.527344 200.910156 98.53125 194.925781 101.773438 190.613281 C 101.828125 190.03125 101.734375 189.433594 101.5 188.898438 C 101.386719 188.625 101.226562 188.371094 101.003906 188.195312 C 100.628906 187.90625 100.09375 187.847656 99.785156 187.492188 C 100.09375 187.136719 100.628906 187.078125 101.003906 186.789062 C 101.238281 186.613281 101.386719 186.351562 101.5 186.085938 C 101.734375 185.550781 101.828125 184.953125 101.773438 184.371094 C 98.53125 180.0625 97.527344 174.074219 99.253906 168.96875 L 99.242188 168.96875 C 97.734375 168.28125 96.011719 167.476562 94.773438 166.378906 C 93.535156 165.273438 92.554688 163.832031 92.234375 162.210938 C 91.933594 160.691406 92.234375 159.117188 92.75 157.667969 C 93.433594 155.746094 94.390625 153.984375 95.9375 152.660156 C 94.007812 150.421875 92.75 147.609375 92.375 144.675781 C 92.097656 142.523438 92.285156 140.320312 91.972656 138.171875 C 91.664062 136.019531 90.953125 133.863281 89.078125 132.765625 C 89.667969 131.726562 90.257812 130.675781 90.847656 129.636719 C 91.195312 129.027344 91.542969 128.390625 91.597656 127.6875 C 91.664062 126.808594 91.246094 125.972656 90.914062 125.148438 C 89.199219 120.929688 89.761719 115.871094 92.347656 112.132812 L 92.285156 112.132812 C 90.8125 110.800781 89.332031 109.453125 88.21875 107.800781 C 87.101562 106.164062 86.390625 104.167969 86.632812 102.199219 C 86.78125 101.035156 87.25 99.941406 87.832031 98.929688 C 88.816406 97.203125 90.457031 95.414062 92.347656 94.832031 C 92.039062 93.558594 91.722656 92.277344 91.410156 91 C 91.132812 89.839844 90.839844 88.660156 90.8125 87.460938 C 90.773438 85.753906 91.273438 84.085938 91.738281 82.445312 C 92.207031 80.804688 92.667969 79.117188 92.5625 77.414062 C 92.460938 75.707031 91.683594 73.957031 90.203125 73.09375 C 92.496094 72.035156 94.382812 69.898438 94.867188 67.425781 C 95.269531 65.355469 94.847656 63.191406 95.253906 61.117188 C 95.75 58.558594 97.707031 55.964844 99.347656 53.929688 C 97.296875 50.679688 96.660156 46.558594 97.632812 42.835938 C 97.832031 42.078125 98.101562 41.320312 98.609375 40.710938 C 99.117188 40.101562 99.816406 39.699219 100.527344 39.34375 C 102.503906 38.359375 104.640625 37.664062 106.824219 37.3125 C 106.945312 34.976562 107.03125 32.542969 108.003906 30.425781 C 108.828125 28.632812 110.195312 27.171875 111.488281 25.683594 C 112.953125 23.996094 114.457031 22.992188 115.734375 21.164062 C 116.230469 20.453125 116.613281 18.984375 116.859375 18.148438 C 117.101562 17.3125 117.082031 16.367188 116.605469 15.644531 C 117.710938 16.246094 118.910156 16.113281 120.121094 15.769531 C 124.261719 14.589844 127.148438 10.792969 131.101562 9.070312 C 134.0625 7.777344 137.425781 7.738281 140.652344 8.078125 C 142.242188 6.597656 144.164062 5.003906 145.960938 3.765625 C 147.113281 2.980469 148.371094 2.21875 149.765625 2.144531 C 151.480469 2.050781 153.074219 3.007812 154.398438 4.09375 C 155.914062 5.34375 157.246094 6.800781 158.332031 8.433594 C 158.695312 8.988281 159.042969 9.558594 159.53125 10.007812 C 160.019531 10.457031 160.664062 10.777344 161.320312 10.695312 C 164.898438 10.1875 169.097656 11.207031 171.925781 13.449219 C 173.21875 14.476562 174.335938 15.742188 175.703125 16.664062 C 177.445312 17.84375 179.660156 18.414062 181.710938 17.917969 C 182.589844 17.703125 183.414062 17.308594 184.277344 17.066406 C 186.320312 16.492188 188.496094 16.824219 190.585938 17.152344 C 191.933594 18.351562 194.292969 18.574219 196 17.957031 C 197.699219 17.339844 199.132812 16.164062 200.574219 15.078125 C 202.625 13.53125 204.800781 12.097656 207.191406 11.144531 C 209.578125 10.1875 212.203125 9.707031 214.742188 10.113281 C 215.507812 8.511719 216.660156 6.945312 217.929688 5.691406 C 219.195312 4.445312 220.777344 3.480469 222.519531 3.125 C 224.65625 2.683594 226.914062 3.191406 228.828125 4.238281 C 230.738281 5.289062 232.359375 6.917969 233.660156 8.671875 C 237.175781 7.792969 241.035156 7.535156 244.277344 9.140625 C 245.871094 9.925781 247.230469 11.117188 248.582031 12.277344 C 249.929688 13.441406 251.308594 14.609375 252.9375 15.332031 C 254.558594 16.0625 256.855469 16.382812 258.472656 15.660156 C 258.007812 16.382812 257.976562 17.339844 258.222656 18.164062 C 258.464844 18.988281 258.953125 19.726562 259.449219 20.441406 C 260.722656 22.265625 262.128906 24.007812 263.589844 25.695312 C 264.882812 27.175781 266.253906 28.648438 267.074219 30.4375 C 268.050781 32.554688 268.136719 34.992188 268.253906 37.324219 C 270.4375 37.679688 272.566406 38.367188 274.550781 39.359375 C 275.253906 39.710938 275.964844 40.117188 276.472656 40.726562 C 276.976562 41.324219 277.25 42.085938 277.445312 42.851562 C 278.421875 46.570312 277.785156 50.695312 275.730469 53.945312 C 277.371094 55.976562 279.328125 58.574219 279.828125 61.132812 C 280.230469 63.203125 279.808594 65.367188 280.210938 67.4375 C 280.699219 69.921875 282.582031 72.058594 284.878906 73.109375 C 283.398438 73.960938 282.628906 75.722656 282.515625 77.429688 C 282.414062 79.132812 282.863281 80.820312 283.339844 82.460938 C 283.808594 84.101562 284.304688 85.765625 284.269531 87.472656 C 284.242188 88.675781 283.957031 89.855469 283.667969 91.015625 C 283.359375 92.292969 283.039062 93.574219 282.730469 94.847656 C 284.625 95.4375 286.261719 97.21875 287.246094 98.941406 C 287.828125 99.957031 288.296875 101.050781 288.449219 102.210938 C 288.699219 104.179688 287.980469 106.175781 286.863281 107.816406 C 285.746094 109.457031 284.269531 110.808594 282.796875 112.148438 L 282.730469 112.148438 C 285.316406 115.886719 285.871094 120.945312 284.164062 125.164062 C 283.828125 125.976562 283.414062 126.8125 283.480469 127.703125 C 283.527344 128.40625 283.882812 129.042969 284.230469 129.652344 C 284.820312 130.691406 285.410156 131.742188 286 132.78125 C 284.125 133.878906 283.414062 136.035156 283.105469 138.1875 C 282.796875 140.34375 282.984375 142.535156 282.703125 144.691406 C 282.328125 147.625 281.074219 150.4375 279.144531 152.675781 C 280.691406 154 281.65625 155.769531 282.332031 157.679688 C 282.847656 159.132812 283.136719 160.707031 282.847656 162.226562 C 282.527344 163.855469 281.542969 165.289062 280.304688 166.394531 C 279.070312 167.5 277.34375 168.296875 275.835938 168.980469 L 275.828125 168.980469 C 277.550781 174.089844 276.550781 180.074219 273.308594 184.386719 C 273.253906 184.96875 273.34375 185.566406 273.578125 186.101562 C 273.691406 186.375 273.851562 186.628906 274.078125 186.804688 C 274.453125 187.09375 274.988281 187.152344 275.292969 187.507812 C 274.984375 187.863281 274.453125 187.917969 274.078125 188.210938 C 273.84375 188.386719 273.691406 188.648438 273.578125 188.914062 C 273.34375 189.445312 273.253906 190.046875 273.308594 190.628906 C 276.550781 194.9375 277.550781 200.925781 275.828125 206.03125 L 275.835938 206.03125 C 277.347656 206.71875 279.070312 207.523438 280.304688 208.621094 C 281.542969 209.726562 282.527344 211.167969 282.847656 212.789062 C 283.144531 214.308594 282.847656 215.882812 282.332031 217.332031 C 281.644531 219.253906 280.691406 221.015625 279.144531 222.339844 C 281.074219 224.578125 282.332031 227.390625 282.703125 230.320312 C 282.984375 232.476562 282.796875 234.679688 283.105469 236.828125 C 283.414062 238.980469 284.128906 241.136719 286 242.234375 C 285.410156 243.273438 284.820312 244.324219 284.230469 245.363281 C 283.882812 245.972656 283.539062 246.609375 283.480469 247.3125 C 283.414062 248.191406 283.835938 249.027344 284.164062 249.851562 C 285.878906 254.070312 285.316406 259.128906 282.730469 262.867188 L 282.769531 262.867188 C 284.242188 264.199219 285.71875 265.546875 286.835938 267.199219 C 287.949219 268.847656 288.664062 270.832031 288.421875 272.800781 C 288.269531 273.964844 287.804688 275.058594 287.21875 276.070312 C 286.234375 277.796875 284.597656 279.585938 282.703125 280.167969 C 283.011719 281.441406 283.332031 282.722656 283.640625 284 C 283.921875 285.160156 284.214844 286.339844 284.242188 287.539062 C 284.277344 289.246094 283.78125 290.914062 283.3125 292.554688 C 282.847656 294.195312 282.386719 295.882812 282.488281 297.585938 C 282.589844 299.292969 283.367188 301.042969 284.851562 301.90625 C 282.554688 302.964844 280.671875 305.101562 280.183594 307.574219 C 279.78125 309.644531 280.203125 311.808594 279.796875 313.882812 C 279.300781 316.4375 277.34375 319.035156 275.703125 321.070312 C 277.757812 324.320312 278.394531 328.441406 277.417969 332.164062 C 277.222656 332.921875 276.953125 333.679688 276.445312 334.289062 C 275.9375 334.898438 275.234375 335.300781 274.523438 335.65625 C 272.546875 336.640625 270.410156 337.335938 268.226562 337.6875 C 268.105469 340.023438 268.023438 342.457031 267.046875 344.574219 C 266.222656 346.367188 264.855469 347.828125 263.5625 349.316406 C 262.101562 351.003906 260.472656 352.4375 259.1875 354.265625 C 258.6875 354.976562 258.4375 356.015625 258.195312 356.851562 C 257.953125 357.6875 257.96875 358.632812 258.445312 359.355469 C 256.816406 358.632812 254.53125 358.828125 252.910156 359.558594 C 251.289062 360.289062 249.902344 361.453125 248.550781 362.613281 C 247.203125 363.777344 245.851562 364.964844 244.25 365.753906 C 241.007812 367.355469 237.140625 367.101562 233.632812 366.222656 C 232.332031 367.964844 230.703125 369.59375 228.800781 370.652344 C 226.898438 371.703125 224.628906 372.207031 222.492188 371.769531 C 220.75 371.414062 219.167969 370.445312 217.902344 369.199219 C 216.636719 367.957031 215.484375 366.386719 214.714844 364.777344 C 212.175781 365.179688 209.550781 364.703125 207.164062 363.75 C 204.773438 362.792969 202.609375 361.359375 200.546875 359.8125 C 199.105469 358.726562 197.667969 357.558594 195.972656 356.9375 C 194.277344 356.320312 191.917969 356.542969 190.558594 357.742188 C 188.46875 358.070312 186.292969 358.390625 184.25 357.828125 C 183.378906 357.585938 182.554688 357.1875 181.683594 356.972656 C 179.640625 356.476562 177.429688 357.050781 175.675781 358.230469 C 174.308594 359.15625 173.203125 360.421875 171.898438 361.445312 C 169.070312 363.683594 164.863281 364.707031 161.292969 364.199219 C 160.636719 364.105469 159.980469 364.433594 159.503906 364.882812 C 159.015625 365.332031 158.667969 365.90625 158.304688 366.457031 C 157.214844 368.089844 155.886719 369.550781 154.367188 370.796875 C 153.046875 371.886719 151.453125 372.839844 149.738281 372.746094 C 148.34375 372.644531 147.085938 371.886719 145.933594 371.097656 Z M 145.933594 371.097656 " fill-opacity="1" fill-rule="nonzero" />
    <path fill="#87bfff" d="M 291 0.0234375 L 291 374.976562 L 84.007812 374.976562 L 84.007812 0.0234375 Z M 291 0.0234375 " fill-opacity="1" fill-rule="nonzero" />
    <g clip-path="url(#ccff5ab383)">
        <path fill="#add7f6" d="M 187.5 187.5 L 0 187.5 L 0 37.511719 C 0 16.78125 16.78125 0 37.511719 0 L 187.5 0 Z M 187.5 187.5 " fill-opacity="1" fill-rule="nonzero" />
    </g>
    <g clip-path="url(#2824328b87)">
        <path fill="#87bfff" d="M 187.5 187.5 L 187.5 375 L 37.511719 375 C 16.78125 375 0 358.21875 0 337.488281 L 0 187.5 Z M 187.5 187.5 " fill-opacity="1" fill-rule="nonzero" />
    </g>
    <g clip-path="url(#3a1b46c0fd)">
        <path fill="#3f8efc" d="M 187.5 187.5 L 375 187.5 L 375 337.488281 C 375 358.21875 358.21875 375 337.488281 375 L 187.5 375 Z M 187.5 187.5 " fill-opacity="1" fill-rule="nonzero" />
    </g>
    <g clip-path="url(#610f9ffb9c)">
        <path fill="#87bfff" d="M 187.5 187.5 L 187.5 0 L 337.488281 0 C 358.21875 0 375 16.78125 375 37.511719 L 375 187.5 Z M 187.5 187.5 " fill-opacity="1" fill-rule="nonzero" />
    </g>
    <g transform="matrix(1, 0, 0, 1, 49, 42)">
        <g clip-path="url(#526aca022d)">
            <g fill="#3b28cc" fill-opacity="1">
                <g transform="translate(1.44772, 80.017953)">
                    <g>
                        <path d="M 39.140625 0 L 37.5625 0 L 15.25 -52.34375 L 15.25 -3.625 L 23.421875 -2.421875 L 23.421875 0 L 2.703125 0 L 2.703125 -2.421875 L 10.5 -3.625 L 10.5 -57.265625 L 2.703125 -58.484375 L 2.703125 -60.890625 L 21.109375 -60.890625 L 40.90625 -14.59375 L 62.46875 -60.890625 L 79.953125 -60.890625 L 79.953125 -58.484375 L 72.140625 -57.265625 L 72.140625 -3.625 L 79.953125 -2.421875 L 79.953125 0 L 55.21875 0 L 55.21875 -2.421875 L 63.40625 -3.625 L 63.40625 -52.34375 Z M 39.140625 0 " />
                    </g>
                </g>
            </g>
        </g>
    </g>
    <g transform="matrix(1, 0, 0, 1, 229, 42)">
        <g clip-path="url(#1603acd803)">
            <g fill="#3b28cc" fill-opacity="1">
                <g transform="translate(1.001939, 80.409349)">
                    <g>
                        <path d="M 52.625 -57.484375 L 44.421875 -58.6875 L 44.421875 -61.125 L 65.21875 -61.125 L 65.21875 -58.6875 L 57.390625 -57.484375 L 57.390625 0 L 53 0 L 15.296875 -54.96875 L 15.296875 -3.640625 L 23.515625 -2.421875 L 23.515625 0 L 2.703125 0 L 2.703125 -2.421875 L 10.546875 -3.640625 L 10.546875 -57.484375 L 2.703125 -58.6875 L 2.703125 -61.125 L 21.1875 -61.125 L 52.625 -15.859375 Z M 52.625 -57.484375 " />
                    </g>
                </g>
            </g>
            <g fill="#3b28cc" fill-opacity="1">
                <g transform="translate(68.386165, 94.659958)">
                    <g>
                        <path d="M 12.59375 -1.453125 L 12.59375 0 L 0.5625 0 L 0.5625 -1.453125 L 4.703125 -2.1875 L 17.1875 -36.953125 L 22.390625 -36.953125 L 35.375 -2.1875 L 40.03125 -1.453125 L 40.03125 0 L 24.515625 0 L 24.515625 -1.453125 L 29.453125 -2.1875 L 25.8125 -12.765625 L 11.359375 -12.765625 L 7.671875 -2.1875 Z M 18.46875 -33.03125 L 12.203125 -15.234375 L 24.96875 -15.234375 Z M 18.46875 -33.03125 " />
                    </g>
                </g>
            </g>
        </g>
    </g>
    <g transform="matrix(1, 0, 0, 1, 56, 194)">
        <g clip-path="url(#63a1108dc2)">
            <g fill="#3b28cc" fill-opacity="1">
                <g transform="translate(0.833034, 104.276021)">
                    <g>
                        <path d="M 34.34375 -5.703125 L 34.34375 -5.578125 C 36.9375 -5.578125 39.460938 -6.125 41.921875 -7.21875 C 44.390625 -8.3125 46.4375 -9.460938 48.0625 -10.671875 L 48.0625 -51.453125 L 39.6875 -52.90625 L 39.6875 -55.578125 L 57.890625 -55.578125 L 57.890625 -4 L 65.890625 -2.546875 L 65.890625 0.125 L 49.515625 0.125 L 48.296875 -7.03125 C 44.816406 -3.800781 41.828125 -1.617188 39.328125 -0.484375 C 36.816406 0.648438 34.507812 1.21875 32.40625 1.21875 C 27.707031 1.21875 24.144531 -0.316406 21.71875 -3.390625 C 21.71875 2.265625 21.535156 7.539062 21.171875 12.4375 C 20.804688 17.332031 20.300781 21.800781 19.65625 25.84375 L 9.109375 25.84375 L 9.109375 23.171875 C 9.671875 21.234375 10.191406 18.625 10.671875 15.34375 C 11.160156 12.070312 11.546875 8.65625 11.828125 5.09375 C 12.109375 1.53125 12.25 -1.539062 12.25 -4.125 L 12.25 -51.578125 L 3.890625 -53.03125 L 3.890625 -55.703125 L 22.09375 -55.703125 L 22.09375 -17.109375 C 22.09375 -13.628906 23.222656 -10.859375 25.484375 -8.796875 C 27.753906 -6.734375 30.707031 -5.703125 34.34375 -5.703125 Z M 34.34375 -5.703125 " />
                    </g>
                </g>
            </g>
        </g>
    </g>
    <g fill="#3b28cc" fill-opacity="1">
        <g transform="translate(242.508532, 350.624977)">
            <g>
                <path d="M 2.796875 -94.65625 L 2.796875 -77.453125 L 74.4375 -77.453125 L 74.4375 -94.65625 Z M 2.796875 -66.046875 L 2.796875 -48.84375 L 74.4375 -48.84375 L 74.4375 -66.046875 Z M 2.796875 -66.046875 " />
            </g>
        </g>
    </g>
</svg>
